<svg xmlns="http://www.w3.org/2000/svg" xmlns:xlink="http://www.w3.org/1999/xlink" width="1080" zoomAndPan="magnify" viewBox="0 0 810 809.999993" height="1080" preserveAspectRatio="xMidYMid meet" version="1.2"><defs><clipPath id="e0e7d682e4"><path d="M 334 238 L 807.6875 238 L 807.6875 711.628906 L 334 711.628906 Z M 334 238 "/></clipPath><clipPath id="538e8940c9"><path d="M 2.1875 238 L 476 238 L 476 711.628906 L 2.1875 711.628906 Z M 2.1875 238 "/></clipPath></defs><g id="bbd0e088c2"><path style="fill:none;stroke-width:56.759998;stroke-linecap:round;stroke-linejoin:round;stroke:#231f1f;stroke-opacity:1;stroke-miterlimit:10;" d="M 2357.897227 3176.199742 C 2305.298751 3247.900865 2141.403475 3255.793231 2099.097588 3143.494477 C 2056.806259 3255.793231 1892.896425 3247.900865 1840.297949 3176.199742 C 1778.906372 3092.397961 1795.400718 2984.205567 1863.605494 2902.092928 C 1931.897619 2819.89292 2099.097588 2689.90187 2099.097588 2689.90187 C 2099.097588 2689.90187 2266.399464 2819.89292 2334.60424 2902.092928 C 2402.896365 2984.205567 2419.405269 3092.397961 2357.897227 3176.199742 Z M 2357.897227 3176.199742 " transform="matrix(0.268321,0,0,-0.268258,-165.513444,978.414883)"/><g clip-rule="nonzero" clip-path="url(#e0e7d682e4)"><path style="fill:none;stroke-width:56.759998;stroke-linecap:round;stroke-linejoin:round;stroke:#231f1f;stroke-opacity:1;stroke-miterlimit:10;" d="M 2745.798243 2728.504566 C 2501.498489 2728.504566 2281.394324 2625.69995 2126.000987 2461.096071 C 2165.002182 2419.799485 2200.101801 2374.702333 2230.295335 2326.095844 C 2355.800858 2469.701953 2540.193963 2560.405913 2745.798243 2560.405913 C 3124.003554 2560.405913 3430.59749 2253.899627 3430.59749 1875.70678 C 3430.59749 1497.499371 3124.003554 1190.905716 2745.798243 1190.905716 C 2367.592932 1190.905716 2061.100904 1497.499371 2061.100904 1875.70678 C 2061.100904 1979.705444 2084.39389 2078.30177 2125.899081 2166.603072 C 2098.602612 2224.703699 2063.401086 2278.304803 2021.604733 2326.095844 C 1940.195745 2195.405839 1892.998331 2041.096983 1892.998331 1875.70678 C 1892.998331 1404.698546 2274.799497 1022.807062 2745.798243 1022.807062 C 3216.79699 1022.807062 3598.700062 1404.698546 3598.700062 1875.70678 C 3598.700062 2346.700452 3216.79699 2728.504566 2745.798243 2728.504566 Z M 2745.798243 2728.504566 " transform="matrix(0.268321,0,0,-0.268258,-165.513444,978.414883)"/></g><g clip-rule="nonzero" clip-path="url(#538e8940c9)"><path style="fill:none;stroke-width:56.759998;stroke-linecap:round;stroke-linejoin:round;stroke:#231f1f;stroke-opacity:1;stroke-miterlimit:10;" d="M 2021.895896 1425.405085 C 1896.303024 1281.798976 1711.895361 1190.905716 1506.203732 1190.905716 C 1127.99842 1190.905716 821.448159 1497.499371 821.448159 1875.70678 C 821.448159 2253.899627 1127.99842 2560.405913 1506.203732 2560.405913 C 1884.394484 2560.405913 2190.901071 2253.899627 2190.901071 1875.70678 C 2190.901071 1771.606184 2167.593527 1672.995297 2126.102894 1584.606625 C 2153.399363 1526.505999 2188.600889 1472.904895 2230.295335 1425.201223 C 2311.80623 1555.90579 2359.003644 1710.200084 2359.003644 1875.70678 C 2359.003644 2346.700452 1977.202478 2728.504566 1506.203732 2728.504566 C 1035.204985 2728.504566 653.316471 2346.700452 653.316471 1875.70678 C 653.316471 1404.698546 1035.204985 1022.807062 1506.203732 1022.807062 C 1750.401579 1022.807062 1970.505744 1125.597117 2126.000987 1290.099066 C 2086.897886 1331.497582 2052.103988 1376.798596 2021.895896 1425.405085 Z M 2021.895896 1425.405085 " transform="matrix(0.268321,0,0,-0.268258,-165.513444,978.414883)"/></g></g></svg>